<?xml version="1.0" encoding="utf-8"?>
<!-- Generator: Adobe Illustrator 15.0.0, SVG Export Plug-In . SVG Version: 6.00 Build 0)  -->
<!DOCTYPE svg PUBLIC "-//W3C//DTD SVG 1.1//EN" "http://www.w3.org/Graphics/SVG/1.1/DTD/svg11.dtd">
<svg version="1.1" id="Calque_1" xmlns="http://www.w3.org/2000/svg" xmlns:xlink="http://www.w3.org/1999/xlink" x="0px" y="0px"
	 width="566.93px" height="566.93px" viewBox="0 0 566.93 566.93" enable-background="new 0 0 566.93 566.93" xml:space="preserve">
<g>
	<path d="M143.878,181.342l104.255,237.596c0,0,3.181,8.291,13.701,8.291h43.5c10.528,0,13.666-8.291,13.666-8.291l104.281-237.596
		c0,0-23.021,30.488-85.206,33.278c-7.16,0.332-11.489,0.434-15.546,2.764c-4.906,3.155-5.902,7.186-6.905,9.839l-32.036,88.122
		l-32.037-88.122c-1.028-2.654-2.023-6.685-6.905-9.839c-4.073-2.331-8.402-2.433-15.581-2.764
		C166.908,211.831,143.878,181.342,143.878,181.342z"/>
	<path d="M283.528,498.438c117.854,0,213.732-95.87,213.732-213.707c0-117.862-95.878-213.741-213.732-213.741
		c-117.845,0-213.724,95.879-213.724,213.741C69.805,402.567,165.684,498.438,283.528,498.438z M477.182,284.73
		c0,106.764-86.854,193.628-193.653,193.628c-106.781,0-193.653-86.864-193.653-193.628c0-106.798,86.872-193.67,193.653-193.67
		C390.327,91.06,477.182,177.932,477.182,284.73z"/>
</g>
</svg>
